<?xml version="1.0" encoding="utf-8" ?><svg xmlns="http://www.w3.org/2000/svg" xmlns:xlink="http://www.w3.org/1999/xlink" width="1024" height="1024" viewBox="0 0 1024 1024"><path fill="#0A1628" d="M0 0L212.593 0L810.837 0L1024 0L1024 210.703L1024 811.283L1024 1024L812.259 1024L211.642 1024L0 1024L0 812.357L0 212.749L0 0Z"/><path fill="#00E5FF" d="M510.434 317.597C514.984 317.54 518.096 318.085 521.934 320.748C531.23 327.253 539.542 335.221 548.339 342.444C593.802 379.772 650.913 401.069 709.115 407.209C720.729 408.434 733.34 408.108 745.051 408.078C748.329 470.029 739.893 532.042 720.186 590.866C684.714 696.328 614.13 778.752 514.176 828.414C511.805 828.387 499.462 820.962 496.527 819.41C455.941 797.946 422.262 770.746 390.47 738.146C341.668 689.144 313.57 632.906 295.606 566.633C280.615 511.329 278.486 465.582 279.63 408.453C293.606 408.524 304.555 408.557 318.474 407.192C375.749 401.576 428.426 377.491 474.496 343.749C484.971 336.077 494.292 326.764 504.876 319.536C506.198 318.633 508.844 317.98 510.434 317.597Z"/><path fill="#0A1628" d="M512.18 407.586C520.83 416.17 533.203 425.113 543.11 432.256C578.601 457.85 618.555 476.112 662.966 477.513C662.207 508.503 657.67 539.285 649.456 569.177C627.645 645.824 581.986 703.699 512.273 742.425C510.981 742.179 503.926 737.453 502.173 736.434C408.298 681.893 362.163 585.647 361.948 477.639C410.328 477.13 478.721 441.191 512.18 407.586Z"/><path fill="#45BCFC" d="M839.127 500.001C873.057 530.811 894.537 584.363 902.947 628.322C904.52 636.544 904.353 644.541 905.552 650.815C905.976 654.669 906.478 661.148 905.63 664.949C904.765 675.362 904.244 686.39 902.496 696.639C893.783 747.731 877.05 783.572 842.237 821.449C848.383 828.97 863.877 843.664 871.38 850.327C869.392 852.4 862.994 859.221 860.866 860.321C859.957 862.446 852.327 868.676 850.287 870.518C802.29 913.86 745.1 932.477 681.54 937.71C678.649 938.088 671.131 938.015 668.282 937.73C667.507 937.039 667.453 933.946 667.119 932.21C666.886 920.185 667.08 907.583 667.116 895.516C618.166 895.751 570.482 876.409 532.847 845.67C537.8 843.054 540.869 840.811 545.246 837.364C550.103 841.593 558.468 846.957 564.079 850.394C597.581 870.912 628.74 878.364 667.334 880.897C667.302 869.287 666.48 849.425 667.447 838.428C634.223 836.551 612.101 829.64 583.881 811.227C588.094 807.952 592.388 804.782 596.76 801.72C623.062 816.088 637.312 821.025 667.457 823.686C667.415 809.646 667.292 795.607 667.088 781.569C652.277 781.236 642.885 778.58 629.911 772.267C633.68 768.255 637.425 765.205 641.607 761.657C651.583 765.112 657.202 765.894 667.473 767.02L667.491 730.21C674.472 722.407 681.087 714.341 687.914 706.42C689.862 704.64 692.927 703.21 695.1 701.78C714.245 689.181 721.105 665.712 717.4 644.513C720.248 638.55 723.171 632.624 726.17 626.736C730.325 634.916 732.105 641.793 732.623 650.944C739.875 650.956 747.434 650.7 754.748 650.625C762.02 650.549 770.732 650.882 777.833 650.571C774.29 626.838 767.93 609.574 751.917 591.449C755.523 587.813 759.094 584.143 762.63 580.439C776.508 597.522 785.491 613.616 790.305 635.409C791.274 639.794 792.569 646.392 792.589 650.86C801.223 650.115 824.116 650.483 833.274 650.758C832.109 643.439 831.915 636.305 830.556 628.921C826.896 609.032 818.718 588.453 807.755 571.422C803.133 564.243 796.947 556.93 791.63 550.286C794.698 546.579 797.873 542.96 801.149 539.434C807.267 546.314 818.17 559.488 823.086 567.958C836.697 591.411 846.8 621.963 848.004 649.185C848.015 649.44 847.875 650.727 847.867 650.806C860.115 650.054 877.682 650.589 890.199 650.622C887.451 610.368 874.246 571.527 851.891 537.939C846.151 529.409 840.044 522.622 834.087 514.558C832.427 513.151 831.447 511.699 830.124 509.98C833.012 506.747 836.139 503.089 839.127 500.001Z"/><path fill="#0A1628" d="M681.539 895.951C737.267 893.215 792.51 872.266 831.439 831.435C841.223 840.571 851.001 850.916 860.866 860.321C859.957 862.446 852.327 868.676 850.287 870.518C802.29 913.86 745.1 932.477 681.54 937.71L681.539 895.951Z"/><path fill="#0A1628" d="M848.22 665.4C852.101 665.403 889.165 665.005 890.445 665.55L890.81 666.38C889.93 674.956 889.921 681.884 888.585 691.09C884.029 722.481 873.263 752.751 856.412 779.642C849.829 790.147 839.502 802.288 831.55 811.768C821.436 801.727 811.448 791.561 801.586 781.273C805.939 776.694 810.004 771.852 813.759 766.771C831.768 742.217 841.447 716.641 846.539 686.79C847.53 680.978 849.093 671.056 848.22 665.4Z"/><path fill="#0A1628" d="M792.589 650.86C801.223 650.115 824.116 650.483 833.274 650.758C833.742 652.428 833.593 662.932 833.705 665.438C832.425 705.029 816.965 741.353 790.927 770.915C781.034 761.397 770.681 750.688 760.634 741.596C778.878 721.927 792.5 692.316 792.659 665.439C793.121 658.94 792.487 656.376 792.589 650.86Z"/><path fill="#0F91FB" d="M792.589 650.86C801.223 650.115 824.116 650.483 833.274 650.758C833.742 652.428 833.593 662.932 833.705 665.438C829.353 665.388 793.676 664.862 792.659 665.439C793.121 658.94 792.487 656.376 792.589 650.86Z"/><path fill="#0A1628" d="M777.833 650.571C778.06 655.402 778.134 660.238 778.056 665.073C776.905 689.017 766.601 713.151 750.497 730.902C739.989 720.344 729.028 710.053 718.385 699.564C725.648 689.774 731.588 677.911 732.196 665.509C732.668 660.436 732.619 656.032 732.623 650.944C739.875 650.956 747.434 650.7 754.748 650.625C762.02 650.549 770.732 650.882 777.833 650.571Z"/><path fill="#0F91FB" d="M777.833 650.571C778.06 655.402 778.134 660.238 778.056 665.073C774.304 665.035 733.252 664.839 732.196 665.509C732.668 660.436 732.619 656.032 732.623 650.944C739.875 650.956 747.434 650.7 754.748 650.625C762.02 650.549 770.732 650.882 777.833 650.571Z"/><path fill="#0F91FB" d="M834.087 514.558C837.932 516.586 842.695 523.568 845.467 527.244C873.705 564.696 890.702 612.463 891.268 659.419C891.285 660.817 891.334 665.44 890.81 666.38L890.445 665.55C889.165 665.005 852.101 665.403 848.22 665.4C847.848 663.81 847.464 652.288 847.867 650.806C860.115 650.054 877.682 650.589 890.199 650.622C887.451 610.368 874.246 571.527 851.891 537.939C846.151 529.409 840.044 522.622 834.087 514.558Z"/><path fill="#0A1628" d="M791.36 791.35C800.832 800.953 812.371 811.834 821.289 821.589C816.929 825.974 810.316 831.284 805.391 835.166C775.459 858.764 744.659 871.318 707.548 878.129C699.181 879.463 690.061 880.268 681.539 881.373L681.516 838.481C722.78 835.99 762.033 821.25 791.36 791.35Z"/><path fill="#0A1628" d="M750.944 751.942C760.299 760.509 771.362 772.205 780.416 781.35C759.17 801.143 737.113 813.162 708.893 819.847C698.533 821.95 692.545 822.709 681.99 823.537L682.017 781.039C707.791 779.786 731.314 768.141 750.944 751.942Z"/><path fill="#0A1628" d="M709.11 710.405C709.875 710.785 737.397 738.057 741.025 741.476C730.855 749.821 719.439 756.519 707.193 761.326C699.037 764.104 689.994 765.558 681.496 767.282C681.83 752.089 681.713 737.953 681.751 722.812C692.996 721.313 700.248 717.037 709.11 710.405Z"/><path fill="#027FFA" d="M511.785 70.196C514.653 69.9419 517.54 69.9693 520.403 70.2776C537.985 72.3111 552.414 87.1076 553.855 104.775C554.206 109.08 553.932 112.218 553.391 116.502C556.472 117.962 559.939 119.933 562.927 121.644C581.104 132.05 599.975 141.508 618.031 152.084C638.815 132.337 673.262 139.827 682.669 167.562C687.22 180.98 682.447 198.383 671.735 207.536C665.376 212.97 660.134 215.246 652.047 217.671L652.136 272.619C684.14 276.609 696.863 317.976 669.71 339.465C661.352 346.202 650.624 349.271 639.967 347.973C628.83 346.66 621.141 341.975 614.299 333.329C604.933 339.379 595.186 344.819 585.12 349.614C583.286 346.709 579.829 342.679 577.582 339.899C587.926 334.781 598.15 328.781 608.143 322.976C605.115 313.36 605.798 306.534 608.983 297.062C600.567 292.226 591.475 287.056 582.758 282.877C574.268 298.406 560.201 309.52 544.433 316.997C542.713 313.349 540.856 309.653 539.085 306.019C546.331 302.701 552.859 298.773 558.652 293.252C570.651 281.838 577.64 266.135 578.089 249.579C578.846 212.812 550.061 186.561 514.192 185.929C508.012 186.012 501.869 186.894 495.915 188.552C462.191 198.006 444.357 231.068 453.717 264.856C458.925 283.659 471.366 295.114 488.066 304.333C485.442 308.023 483.505 311.678 481.362 315.635C464.289 306.805 455.346 298.365 445.852 281.798C439.047 286.629 426.781 293.548 419.401 297.255C422.577 306.219 421.812 312.974 419.195 321.835C429.867 327.402 440.418 333.194 450.844 339.209C448.435 342.255 445.064 346.061 443.583 349.496C433.322 343.769 423.649 337.629 413.652 332.038C407.779 340.371 401.087 344.797 391.005 347.106C356.237 355.07 330.953 319.326 349.287 289.044C355.529 278.734 365.315 274.464 376.78 271.916C375.936 255.728 376.663 234.311 377.01 217.898C357.863 213.978 343.995 200.278 343.651 180.062C343.508 169.991 347.36 160.274 354.366 153.037C361.816 145.502 371.907 141.163 382.502 140.938C394.731 140.798 403.842 145.571 412.376 153.904C415.506 151.707 419.258 149.46 422.602 147.592C440.092 137.825 458.003 126.094 476.056 117.457C470.189 92.9686 487.588 72.8104 511.785 70.196Z"/><path fill="#45BCFC" d="M615.079 286.982C622.915 277.34 628.116 274.385 640.557 272.675C641.437 273.46 641.374 273.624 641.926 274.773C661.068 272.901 678.252 286.53 680.788 305.595C683.325 324.66 670.301 342.308 651.335 345.505C632.369 348.702 614.28 336.299 610.426 317.456C607.991 314.516 608.346 305.463 609.613 301.79L610.212 299.978C610.543 298.961 611.883 296.404 611.738 295.747C611.403 295.708 611.086 295.686 610.835 295.526C610.898 293.831 614.173 288.99 615.079 286.982Z"/><path fill="#0F91FB" d="M615.079 286.982C622.915 277.34 628.116 274.385 640.557 272.675C641.437 273.46 641.374 273.624 641.926 274.773C631.86 275.757 622.683 280.966 616.677 289.104C610.671 297.242 608.399 307.547 610.426 317.456C607.991 314.516 608.346 305.463 609.613 301.79L610.212 299.978C610.543 298.961 611.883 296.404 611.738 295.747C611.403 295.708 611.086 295.686 610.835 295.526C610.898 293.831 614.173 288.99 615.079 286.982Z"/><path fill="#45BCFC" d="M414.843 196.466C406.366 212.472 387.329 219.703 370.363 213.361C353.397 207.02 343.771 189.074 347.871 171.432C351.971 153.79 368.525 141.93 386.549 143.72C404.572 145.511 418.469 160.396 419.018 178.5C419.598 180.241 419.967 183.637 420.616 184.665C420.819 184.23 420.681 182.016 421.054 181.056C421.101 181.048 421.149 181.04 421.197 181.032C421.501 181.27 421.453 181.381 421.633 181.849C421.571 184.56 421.438 187.78 420.479 190.347C417.631 193.166 418.176 194.462 414.843 196.466Z"/><path fill="#0F91FB" d="M419.018 178.5C419.598 180.241 419.967 183.637 420.616 184.665C420.819 184.23 420.681 182.016 421.054 181.056C421.101 181.048 421.149 181.04 421.197 181.032C421.501 181.27 421.453 181.381 421.633 181.849C421.571 184.56 421.438 187.78 420.479 190.347C417.631 193.166 418.176 194.462 414.843 196.466C417.769 190.941 419.208 184.75 419.018 178.5Z"/><path fill="#45BCFC" d="M511.278 72.6199C524.266 71.4727 536.867 77.3972 544.27 88.1305C551.673 98.8639 552.733 112.748 547.045 124.481C541.358 136.214 529.802 143.983 516.79 144.821C497.002 146.095 479.87 131.216 478.36 111.444C476.851 91.6725 491.525 74.3645 511.278 72.6199Z"/><path fill="#45BCFC" d="M377.417 274.159C396.958 271.53 414.977 285.113 417.828 304.623C420.68 324.133 407.303 342.305 387.827 345.379C375.03 347.399 362.134 342.384 354.063 332.249C345.992 322.115 343.991 308.424 348.823 296.403C353.656 284.382 364.577 275.887 377.417 274.159Z"/><path fill="#45BCFC" d="M640.247 143.92C659.927 141.208 678.064 155.002 680.707 174.691C683.349 194.381 669.49 212.469 649.791 215.041C630.192 217.6 612.214 203.826 609.585 184.236C606.956 164.646 620.666 146.619 640.247 143.92Z"/><path fill="#0A1628" d="M549.436 127.284C569.731 139.031 590.167 150.069 610.36 162.169C605.883 171.825 605.262 180.517 607.614 190.802C599.327 195.107 589.892 200.923 581.724 205.685C580.413 206.427 580.917 206.288 579.483 206.538C573.221 198.637 568.884 192.822 560.361 187.168C548.19 179.095 536.228 173.821 521.565 172.901C521.543 164.186 521.406 155.18 521.66 146.493C534.905 143.767 541.841 138.381 549.436 127.284Z"/><path fill="#0A1628" d="M479.827 127.895C487.274 138.068 495.505 145.969 508.952 146.609C508.898 155.368 508.898 164.128 508.955 172.887C485.003 175.757 467.59 184.034 452.517 203.188C451.562 204.401 450.616 205.622 449.68 206.851C440.071 200.769 429.35 196.12 420.479 190.347C421.438 187.78 421.571 184.56 421.633 181.849C422.672 176.003 420.661 168.464 418.452 163.065C424.906 160.216 430.971 156.722 437.022 153.115C451.261 144.626 465.713 136.593 479.827 127.895Z"/><path fill="#0A1628" d="M612.914 201.545C613.402 202.284 613.922 203.002 614.474 203.694C621.347 212.475 629.698 216.364 640.498 217.707L640.557 272.675C628.116 274.385 622.915 277.34 615.079 286.982C606.831 281.644 596.057 276.243 587.218 271.611C592.521 252.439 592.286 235.926 585.141 217.239C594.556 212.291 603.818 207.057 612.914 201.545Z"/><path fill="#0A1628" d="M415.316 201.246C417.107 201.912 423.225 205.626 425.153 206.748L443.824 217.585C436.736 232.78 435.077 255.835 440.682 271.455C433.427 276.021 425.19 280.472 417.671 284.733L414.546 287.027C406.699 277.562 400.452 274.302 388.501 272.121C388.649 254.167 388.645 236.212 388.491 218.258C400.398 215.474 407.874 210.933 415.316 201.246Z"/><path fill="#027FFA" d="M878.584 458.879C932.026 509.514 960.769 581.994 962.719 655.057C964.815 731.028 936.566 804.706 884.218 859.803C799.574 948.951 673.001 978.139 558.919 930.062C523.824 915.272 498.153 896.102 470.594 869.993L470.102 869.519C473.358 866.21 477.863 861.874 480.366 858.128C492.543 869.349 504.315 880.124 517.915 889.69C558.584 918.293 607.941 934.771 657.573 937.006C660.877 937.154 663.923 938.673 666.7 936.594C667.421 935.181 667.174 933.839 667.119 932.21C667.453 933.946 667.507 937.039 668.282 937.73C671.131 938.015 678.649 938.088 681.54 937.71C745.1 932.477 802.29 913.86 850.287 870.518C852.327 868.676 859.957 862.446 860.866 860.321C862.994 859.221 869.392 852.4 871.38 850.327C863.877 843.664 848.383 828.97 842.237 821.449C877.05 783.572 893.783 747.731 902.496 696.639C904.244 686.39 904.765 675.362 905.63 664.949C906.478 661.148 905.976 654.669 905.552 650.815C918.337 650.455 933.896 650.373 946.654 650.797C945.469 607.597 936.365 572.49 915.959 534.499C902.472 509.391 890.583 492.089 869.675 472.322C868.901 471.59 868.123 470.862 867.34 470.138C871.506 466.249 874.691 463.046 878.584 458.879Z"/><path fill="#0A1628" d="M905.63 664.949C919.593 665.077 933.558 665.059 947.522 664.896C945.755 722.352 930.446 772.394 897.064 819.847C889.337 830.83 881.559 840.704 871.759 849.972L871.38 850.327C863.877 843.664 848.383 828.97 842.237 821.449C877.05 783.572 893.783 747.731 902.496 696.639C904.244 686.39 904.765 675.362 905.63 664.949Z"/><path fill="#027FFA" d="M508.378 205.26C531.858 201.725 553.737 217.956 557.164 241.453C560.592 264.949 544.261 286.753 520.749 290.072C497.389 293.37 475.756 277.168 472.351 253.823C468.946 230.479 485.049 208.773 508.378 205.26Z"/><path fill="#00E5FF" d="M80.0868 615.255C117.533 614.619 156.075 615.128 193.577 615.177C206.434 615.19 219.291 615.139 232.147 615.023C238.825 614.984 245.551 614.87 252.217 615.021C256.177 615.111 260.844 616.091 261.15 620.832C261.512 626.444 258.305 627.915 253.394 628.323L135.442 628.268L98.9138 628.406C93.8738 628.43 77.9296 629.297 75.1397 626.952C69.7107 622.387 71.7888 615.797 80.0868 615.255Z"/><path fill="#00E5FF" d="M772.589 294.753L840.025 294.715C851.155 294.704 862.385 294.458 873.482 294.902C879.035 295.341 881.35 302.515 877.187 306.061C873.465 309.233 863.724 308.092 858.75 308.003L789.562 307.994C778.9 308.011 768.149 308.345 757.527 307.9C753.164 307.563 751.287 303.3 752.259 299.531C753.996 292.796 766.628 294.691 772.589 294.753Z"/><path fill="#00E5FF" d="M310.094 771.683C335.889 771.291 362.634 771.67 388.481 771.709C393.308 775.538 400.921 780.447 391.89 784.959C364.589 784.982 336.951 785.388 309.717 784.452C306.128 784.328 301.788 775.402 310.094 771.683Z"/><path fill="#00E5FF" d="M151.392 294.524L234.59 294.534C240.209 298.782 240.553 303.123 234.286 306.931C229.647 307.714 205.035 307.338 198.339 307.335L169.39 307.315C164.218 307.31 158.859 307.459 153.711 307.16C144.894 306.648 145.014 298.853 151.392 294.524Z"/><path fill="#00E5FF" d="M187.255 535.25L224.961 535.135C231.304 535.111 237.634 534.941 243.977 535.199C248.082 535.197 250.723 537.376 251.111 541.522C252.014 551.168 234.978 548.586 228.25 548.485L190.356 548.472C185.34 548.47 168.654 549.284 166.775 546.744C155.883 532.028 183.898 535.223 187.255 535.25Z"/><path fill="#00E5FF" d="M777.404 453.561C801.235 452.309 826.69 454.033 850.64 453.374C858.601 453.155 860.182 461.316 854.226 466.039C853.24 466.125 852.251 466.179 851.261 466.199C827.097 466.522 802.488 466.171 778.322 465.88C777.373 465.869 775.131 464.656 774.581 463.845C771.739 459.656 773.967 456.231 777.404 453.561Z"/><path fill="#00E5FF" d="M135.366 453.583C158.189 452.839 181.469 453.82 204.338 453.415C209.017 453.332 216.344 453.855 215.433 460.415C215.036 463.273 213.786 464.32 211.554 465.922C208.596 466.12 205.468 466.159 202.492 466.149C180.822 466.049 159.08 466.465 137.422 466.065C130.203 465.932 129.109 457.699 135.366 453.583Z"/><path fill="#00E5FF" d="M189.658 772.105C210.481 771.545 231.528 772.111 252.371 771.806C255.963 771.753 262.988 771.152 264.839 774.964C266.891 779.187 265.411 782.67 261.377 784.78C239.113 785.514 213.278 784.985 190.748 784.622C185.96 784.544 182.247 776.749 189.658 772.105Z"/><path fill="#00E5FF" d="M76.9019 373.536C98.7402 372.601 121.431 374.026 143.323 373.519C153.233 373.29 156.227 380.928 149.003 386.322C135.305 387.103 119.946 386.29 106.043 386.598C97.4627 386.789 87.7704 386.634 79.1341 386.411C77.3866 386.239 74.6566 385.088 73.8063 383.472C71.5059 379.099 73.4331 376.023 76.9019 373.536Z"/><path fill="#00E5FF" d="M223.928 851.074C235.735 850.437 250.328 851.374 262.586 851.064C273.138 851.513 285.026 850.28 295.44 851.593C301.074 852.304 301.21 860.265 295.529 863.561C273.37 864.389 250.35 863.402 228.12 863.824C219.875 863.98 217.227 856.065 223.928 851.074Z"/><path fill="#00E5FF" d="M209.26 373.599C218.676 373.3 272.188 372.473 275.899 374.236C277.422 374.961 278.581 376.153 279.116 377.764C279.704 379.535 279.715 381.905 278.806 383.569C277.912 385.204 276.638 385.753 274.953 386.331C254.627 386.851 230.845 386.586 210.255 386.285C204.852 386.206 201.642 378.472 209.26 373.599Z"/><path fill="#00E5FF" d="M776.261 373.597L817.565 373.479C822.404 373.474 827.286 373.406 832.129 373.473C836.126 373.529 842.731 372.875 844.8 377.118C846.746 381.105 844.62 384.591 840.935 386.434C832.024 386.545 780.462 387.57 775.325 385.841C773.817 385.343 772.601 384.21 771.998 382.741C770.2 378.436 772.286 375.307 776.261 373.597Z"/><path fill="#00E5FF" d="M219.438 694.535C237.269 693.905 255.606 694.768 273.479 694.395C277.12 694.319 286.043 693.691 287.822 697.548C289.892 702.04 288.421 705.124 284.316 707.392C263.919 707.999 242.352 707.33 221.868 707.241C214.117 707.208 212.495 699.001 219.438 694.535Z"/><path fill="#00E5FF" d="M191.732 221.758C195.855 221.661 203.132 220.85 206.307 223.321C207.797 224.468 208.711 226.21 208.807 228.089C209.198 237.072 192.914 234.667 186.715 234.65L154.86 234.542C150.967 234.616 143.64 235.321 140.305 233.184C136.173 230.538 138.614 222.713 143.352 222.197C149.15 221.567 155.423 221.832 161.344 221.846L191.732 221.758Z"/><path fill="#00E5FF" d="M796.922 221.748C803.434 221.765 832.691 220.519 836.036 223.028C837.362 224.001 838.219 225.485 838.401 227.12C839.658 237.568 817.911 234.65 811.288 234.595C805.08 234.55 774.666 235.903 771.271 233.373C769.645 232.162 768.58 229.914 768.508 227.909C768.458 226.526 768.932 225.264 769.901 224.275C773.953 220.138 791.194 221.72 796.922 221.748Z"/><path fill="#00E5FF" d="M245.994 221.754C253.402 221.566 297.958 220.993 301.719 222.649C303.281 223.337 304.885 224.879 305.298 226.58C305.703 228.244 305.243 229.902 304.352 231.332C303.083 233.37 301.37 234.01 299.125 234.514C291.467 234.537 245.62 235.68 241.954 233.634C240.467 232.805 239.354 230.595 239.098 228.974C238.809 227.142 239.32 225.422 240.525 224.015C242.009 222.281 243.83 221.976 245.994 221.754Z"/><path fill="#00E5FF" d="M367.848 851.084C383.434 850.319 400.149 851.234 415.822 851.066C424.588 850.973 426.337 858.719 419.392 863.715C404.484 865.025 387.715 863.156 372.635 863.928C362.465 864.449 360.94 856.024 367.848 851.084Z"/><path fill="#00E5FF" d="M897.38 373.566L930.028 373.391C937.211 373.369 953.782 370.769 951.437 381.612C950.901 384.091 949.259 384.973 947.352 386.184C931.91 387.217 915.247 386.229 899.72 386.411C892.287 386.498 890.302 378.348 897.38 373.566Z"/></svg>
